<svg width="726" height="576" viewBox="0 0 726 576" fill="none" xmlns="http://www.w3.org/2000/svg">
<rect width="726" height="576" fill="#C89999"/>
<g id="riding_a_bicycle 1" clip-path="url(#clip0_0_1)">
<rect width="726" height="576" fill="#A6CDFB"/>
<path id="Vector" d="M89.6369 415.479H106.981V401.261H89.6369V415.479Z" fill="#A6CDFB"/>
<path id="Vector_2" d="M61.1924 415.479H78.5366V401.261H61.1924V415.479Z" fill="#A6CDFB"/>
<path id="Vector_3" d="M89.6369 451.733H106.981V437.516H89.6369V451.733Z" fill="#A6CDFB"/>
<path id="Vector_4" d="M61.1924 451.733H78.5366V437.516H61.1924V451.733Z" fill="#A6CDFB"/>
<path id="Vector_5" d="M89.6369 487.988H106.981V473.77H89.6369V487.988Z" fill="#A6CDFB"/>
<path id="Vector_6" d="M61.1924 487.988H78.5366V473.77H61.1924V487.988Z" fill="#A6CDFB"/>
<path id="Vector_7" d="M61.1924 524.243H78.5366V510.025H61.1924V524.243Z" fill="#A6CDFB"/>
<path id="Vector_8" d="M61.1924 560.497H78.5366V546.28H61.1924V560.497Z" fill="#A6CDFB"/>
<path id="Vector_9" d="M190.447 375.314H246.642V371.049H190.447V375.314Z" fill="#A6CDFB"/>
<path id="Vector_10" d="M190.447 401.617H246.642V397.351H190.447V401.617Z" fill="#A6CDFB"/>
<path id="Vector_11" d="M190.447 427.919H246.642V423.654H190.447V427.919Z" fill="#A6CDFB"/>
<path id="Vector_12" d="M223.748 194.751H241.092V180.534H223.748V194.751Z" fill="#A6CDFB"/>
<path id="Vector_13" d="M335.5 451.733H352.844V437.516H335.5V451.733Z" fill="#A6CDFB"/>
<path id="Vector_14" d="M307.055 451.733H324.399V437.516H307.055V451.733Z" fill="#A6CDFB"/>
<path id="Vector_15" d="M335.5 487.988H352.844V473.77H335.5V487.988Z" fill="#A6CDFB"/>
<path id="Vector_16" d="M307.055 487.988H324.399V473.77H307.055V487.988Z" fill="#A6CDFB"/>
<path id="Vector_17" d="M335.5 524.243H352.844V510.025H335.5V524.243Z" fill="#A6CDFB"/>
<path id="Vector_18" d="M307.055 524.243H324.399V510.025H307.055V524.243Z" fill="#A6CDFB"/>
<path id="Vector_19" d="M335.5 560.497H352.844V546.28H335.5V560.497Z" fill="#A6CDFB"/>
<path id="Vector_20" d="M307.055 560.497H324.399V546.28H307.055V560.497Z" fill="#A6CDFB"/>
<path id="Vector_21" d="M469.61 194.751H486.955V180.534H469.61V194.751Z" fill="#A6CDFB"/>
<path id="Vector_22" d="M529.614 241.12H486.892V250.398H529.614V241.12Z" fill="#A6CDFB"/>
<path id="Vector_23" d="M529.614 268.953H486.892V278.231H529.614V268.953Z" fill="#A6CDFB"/>
<path id="Vector_24" d="M529.614 296.786H486.892V306.064H529.614V296.786Z" fill="#A6CDFB"/>
<path id="Vector_25" d="M529.614 324.62H486.892V333.897H529.614V324.62Z" fill="#A6CDFB"/>
<path id="Vector_26" d="M529.614 352.453H486.892V361.73H529.614V352.453Z" fill="#A6CDFB"/>
<path id="Vector_27" d="M529.614 380.286H486.892V389.563H529.614V380.286Z" fill="#A6CDFB"/>
<path id="Vector_28" d="M282.519 433.022L292.335 441.439L329.394 405.786L314.907 393.365L282.519 433.022Z" fill="#FFB6B6"/>
<path id="Vector_29" d="M311.559 430.176L290.772 415.474L345.503 326.561C305.835 302.936 278.555 274.115 256.296 242.457C248.731 231.774 244.12 219.34 254.673 211.325C255.166 210.95 255.673 210.595 256.192 210.26C268.226 202.577 264.32 214.092 280.815 208.436L295.719 224.727L327.92 256.833L382.846 292.759C393.892 299.984 396.957 315.181 389.692 326.702C389.308 327.311 388.9 327.902 388.466 328.475L311.559 430.176Z" fill="#2F2E41"/>
<path id="Vector_30" d="M283.763 426.167L300.973 439.22L295.096 446.416L301.672 470.808C301.997 472.013 301.938 473.292 301.503 474.46C301.068 475.627 300.28 476.622 299.254 477.298C298.229 477.975 297.019 478.297 295.801 478.219C294.584 478.141 293.423 477.666 292.488 476.864L272.973 460.13L275.423 450.128L268.296 456.119L260.938 449.81L283.763 426.167Z" fill="#2F2E41"/>
<path id="Vector_31" d="M259.742 337.326L153.588 376.223L156.664 385.038L262.819 346.141L259.742 337.326Z" fill="#3F3D56"/>
<path id="Vector_32" d="M284.568 487.794L256.909 463.323C254.984 461.619 253.799 459.201 253.614 456.602C253.428 454.003 254.258 451.434 255.92 449.462C257.582 447.489 259.941 446.274 262.478 446.083C265.015 445.892 267.521 446.741 269.447 448.443L297.107 472.915C298.061 473.758 298.843 474.786 299.41 475.939C299.976 477.092 300.315 478.349 300.407 479.636C300.499 480.924 300.343 482.218 299.948 483.443C299.552 484.669 298.924 485.803 298.101 486.78C297.277 487.758 296.274 488.559 295.148 489.139C294.023 489.719 292.796 490.066 291.54 490.16C290.283 490.254 289.02 490.093 287.824 489.687C286.628 489.281 285.522 488.638 284.568 487.794V487.794Z" fill="#3F3D56"/>
<path id="Vector_33" d="M441.692 205.071C439.944 205.689 438.085 205.907 436.246 205.709C434.407 205.511 432.632 204.902 431.048 203.925C429.463 202.949 428.107 201.628 427.075 200.056C426.042 198.485 425.359 196.7 425.072 194.828L326.264 168.758L342.378 151.433L436.487 179.748C439.588 179.463 442.683 180.354 445.185 182.251C447.688 184.148 449.425 186.92 450.066 190.041C450.708 193.162 450.21 196.417 448.666 199.187C447.123 201.957 444.641 204.051 441.691 205.071H441.692Z" fill="#FFB6B6"/>
<path id="Vector_34" d="M291.587 84.0247C291.587 84.0247 275.521 85.932 275.81 104.903C276.098 123.873 315.482 167.089 321.626 174.249C327.771 181.409 389.089 185.067 389.089 185.067L408.244 167.809L351.448 148.202L291.587 84.0247Z" fill="#B1B0C8"/>
<path id="Vector_35" d="M258.998 173.066L255.374 190.485C255.374 190.485 248.777 204.983 250.057 208.856C251.326 212.708 308.42 233.649 308.42 233.649C308.42 233.649 313.311 207.528 321.474 189.909L258.998 173.066Z" fill="#FFB6B6"/>
<path id="Vector_36" d="M441.977 445.514L409.003 461.656C406.707 462.779 404.07 462.923 401.671 462.054C399.273 461.186 397.309 459.376 396.212 457.024C395.115 454.672 394.976 451.969 395.823 449.512C396.671 447.054 398.437 445.041 400.732 443.918L433.706 427.776C436.002 426.652 438.639 426.509 441.038 427.377C443.436 428.246 445.4 430.055 446.497 432.408C447.594 434.76 447.733 437.462 446.886 439.92C446.038 442.378 444.272 444.39 441.977 445.514V445.514Z" fill="#3F3D56"/>
<path id="Vector_37" d="M567.053 574.367C546.458 574.367 526.325 568.11 509.201 556.385C492.077 544.661 478.73 527.997 470.849 508.501C462.968 489.005 460.906 467.551 464.923 446.854C468.941 426.156 478.859 407.145 493.422 392.223C507.985 377.301 526.539 367.139 546.738 363.022C566.937 358.905 587.875 361.018 606.902 369.094C625.929 377.169 642.192 390.845 653.634 408.391C665.076 425.938 671.183 446.567 671.183 467.67C671.152 495.958 660.171 523.078 640.65 543.081C621.128 563.084 594.66 574.335 567.053 574.367ZM567.053 370.851C548.365 370.851 530.096 376.529 514.558 387.168C499.019 397.807 486.908 412.928 479.757 430.619C472.605 448.31 470.734 467.777 474.38 486.558C478.026 505.339 487.025 522.59 500.239 536.13C513.454 549.671 530.29 558.892 548.619 562.628C566.948 566.363 585.947 564.446 603.212 557.118C620.478 549.79 635.235 537.381 645.617 521.459C656 505.537 661.542 486.818 661.542 467.67C661.513 442.001 651.549 417.391 633.835 399.241C616.121 381.09 592.104 370.88 567.053 370.851V370.851Z" fill="#3F3D56"/>
<path id="Vector_38" d="M571.639 490.117C579.712 490.117 586.257 483.411 586.257 475.139C586.257 466.867 579.712 460.162 571.639 460.162C563.567 460.162 557.022 466.867 557.022 475.139C557.022 483.411 563.567 490.117 571.639 490.117Z" fill="#3F3D56"/>
<path id="Vector_39" d="M139.092 575.822C119.578 575.822 100.501 569.892 84.2756 558.783C68.0499 547.674 55.4034 531.885 47.9355 513.411C40.4676 494.937 38.5137 474.609 42.3208 454.998C46.1279 435.386 55.525 417.372 69.3239 403.233C83.1228 389.094 100.704 379.465 119.843 375.564C138.983 371.663 158.822 373.665 176.851 381.317C194.88 388.969 210.29 401.928 221.131 418.553C231.973 435.179 237.76 454.726 237.76 474.722C237.73 501.526 227.325 527.223 208.828 546.177C190.331 565.13 165.251 575.791 139.092 575.822V575.822ZM139.092 382.983C121.385 382.983 104.075 388.363 89.3512 398.443C74.6279 408.524 63.1524 422.851 56.376 439.615C49.5995 456.378 47.8265 474.823 51.2811 492.619C54.7357 510.415 63.2628 526.761 75.784 539.591C88.3052 552.421 104.258 561.158 121.626 564.698C138.993 568.238 156.995 566.421 173.355 559.477C189.714 552.534 203.697 540.775 213.535 525.689C223.373 510.603 228.624 492.866 228.624 474.722C228.597 450.399 219.156 427.081 202.371 409.883C185.586 392.684 162.829 383.01 139.092 382.983V382.983Z" fill="#3F3D56"/>
<path id="Vector_40" d="M139.092 489.699C147.165 489.699 153.71 482.993 153.71 474.721C153.71 466.449 147.165 459.743 139.092 459.743C131.019 459.743 124.475 466.449 124.475 474.721C124.475 482.993 131.019 489.699 139.092 489.699Z" fill="#3F3D56"/>
<path id="Vector_41" d="M337.34 490.217C346.702 490.217 354.291 482.441 354.291 472.849C354.291 463.257 346.702 455.481 337.34 455.481C327.979 455.481 320.39 463.257 320.39 472.849C320.39 482.441 327.979 490.217 337.34 490.217Z" fill="#3F3D56"/>
<path id="Vector_42" d="M142.846 473.66L136.18 467.258L255.161 337.201L467.49 272.088L572.867 461.589L564.93 466.223L463.149 283.191L260.142 345.445L142.846 473.66Z" fill="#3F3D56"/>
<path id="Vector_43" d="M322.945 467.755H233.165V477.116H322.945V467.755Z" fill="#3F3D56"/>
<path id="Vector_44" d="M262.22 292.38H253.084V341.323H262.22V292.38Z" fill="#3F3D56"/>
<path id="Vector_45" d="M439.862 181.634L431.168 184.511L460.972 279.078L469.666 276.201L439.862 181.634Z" fill="#3F3D56"/>
<path id="Vector_46" d="M261.307 335.165L253.424 339.896L328.338 470.952L336.222 466.221L261.307 335.165Z" fill="#3F3D56"/>
<path id="Vector_47" d="M507.852 354.253L347.068 466.597L352.215 474.331L512.999 361.987L507.852 354.253Z" fill="#3F3D56"/>
<path id="Vector_48" d="M275.181 298.214H238.637C236.093 298.214 233.653 297.179 231.854 295.335C230.055 293.492 229.044 290.992 229.044 288.385C229.044 285.778 230.055 283.278 231.854 281.435C233.653 279.591 236.093 278.556 238.637 278.556H275.181C277.725 278.556 280.165 279.591 281.964 281.435C283.763 283.278 284.773 285.778 284.773 288.385C284.773 290.992 283.763 293.492 281.964 295.335C280.165 297.179 277.725 298.214 275.181 298.214V298.214Z" fill="#B1B0C8"/>
<path id="Vector_49" d="M453.33 192.433H416.787C414.242 192.433 411.802 191.398 410.003 189.555C408.204 187.711 407.194 185.211 407.194 182.604C407.194 179.997 408.204 177.497 410.003 175.654C411.802 173.811 414.242 172.775 416.787 172.775H453.33C455.874 172.775 458.314 173.811 460.113 175.654C461.912 177.497 462.923 179.997 462.923 182.604C462.923 185.211 461.912 187.711 460.113 189.555C458.314 191.398 455.874 192.433 453.33 192.433Z" fill="#B1B0C8"/>
<path id="Vector_50" d="M726 574.886C726 575.032 725.973 575.177 725.918 575.313C725.864 575.448 725.784 575.571 725.683 575.675C725.581 575.778 725.461 575.86 725.329 575.916C725.197 575.972 725.056 576 724.913 576H1.08717C0.798835 576 0.522306 575.883 0.318423 575.674C0.114539 575.465 0 575.181 0 574.886C0 574.591 0.114539 574.307 0.318423 574.098C0.522306 573.889 0.798835 573.772 1.08717 573.772H724.913C725.056 573.772 725.197 573.8 725.329 573.856C725.461 573.912 725.581 573.994 725.683 574.097C725.784 574.201 725.864 574.324 725.918 574.459C725.973 574.595 726 574.74 726 574.886V574.886Z" fill="#CCCCCC"/>
<path id="Vector_51" d="M317.753 70.0913C332.46 67.5292 342.356 53.2352 339.856 38.1649C337.355 23.0946 323.405 12.9548 308.698 15.5169C293.99 18.079 284.094 32.3729 286.594 47.4432C289.095 62.5136 303.045 72.6534 317.753 70.0913Z" fill="#FFB6B6"/>
<path id="Vector_52" d="M480.427 307.6L449.919 241.613L450.332 241.413C452.446 240.387 454.737 239.797 457.073 239.678C459.41 239.559 461.747 239.912 463.95 240.718C466.153 241.524 468.18 242.767 469.914 244.376C471.648 245.985 473.056 247.928 474.058 250.094L489.312 283.088C490.314 285.255 490.889 287.602 491.005 289.996C491.122 292.39 490.777 294.784 489.99 297.042C489.203 299.299 487.99 301.376 486.42 303.153C484.85 304.93 482.954 306.373 480.839 307.399L480.427 307.6Z" fill="#3F3D56"/>
<path id="Vector_53" d="M387.169 319.198C383.329 319.188 379.594 317.907 376.52 315.548C373.446 313.188 371.197 309.875 370.108 306.101L369.978 305.652L438.325 284.989L438.454 285.438C439.116 287.737 439.33 290.147 439.083 292.531C438.836 294.915 438.133 297.225 437.015 299.331C435.896 301.436 434.384 303.295 432.564 304.802C430.745 306.309 428.653 307.433 426.409 308.111L392.236 318.443C390.591 318.942 388.885 319.196 387.169 319.198V319.198Z" fill="#3F3D56"/>
<path id="Vector_54" d="M395.954 432.918L408.391 429.775L402.641 378.011L384.286 382.652L395.954 432.918Z" fill="#FFB6B6"/>
<path id="Vector_55" d="M390.064 418.064L409.473 408.798L412.839 417.524L436.896 423.245C438.085 423.527 439.154 424.191 439.947 425.14C440.741 426.089 441.218 427.273 441.308 428.52C441.399 429.766 441.098 431.009 440.45 432.068C439.802 433.127 438.841 433.946 437.706 434.405L414.041 443.99L406.632 437.01L408.369 446.287L399.446 449.9L390.064 418.064Z" fill="#2F2E41"/>
<path id="Vector_56" d="M409.088 386.274L382.57 402.569L354.287 300.222C308.407 299.821 265.984 294.557 231.348 278.346C219.613 272.901 214.393 258.502 219.689 246.185C219.936 245.609 220.205 245.044 220.494 244.489C227.237 231.708 240.308 224.203 251.906 210.921L309.44 232.686L305.317 248.561L370.398 251.909C383.486 252.582 393.492 264.23 392.748 277.926C392.708 278.65 392.639 279.37 392.539 280.088L409.088 386.274Z" fill="#2F2E41"/>
<path id="Vector_57" d="M296.587 69.824L314.268 79.2968C315.245 79.6962 316.075 80.398 316.645 81.3042C317.214 82.2104 317.493 83.276 317.443 84.3524L322.048 103.236L338.253 138.38C338.253 138.38 342.475 157.085 334.417 174.745C326.36 192.406 308.526 236.431 308.526 236.431C296.895 264.976 201.424 242.932 226.304 218.645C229.264 215.755 245.903 191.344 251.991 189.941L266.928 102.353C267.681 97.729 269.424 93.3326 272.03 89.4796C274.637 85.6266 278.043 82.4123 282.005 80.0673C284.399 78.681 286.617 77.8602 288.138 78.2791C291.603 79.1067 293.241 71.0646 296.587 69.824Z" fill="#818091"/>
<path id="Vector_58" d="M450.143 185.88C448.535 186.816 446.747 187.379 444.903 187.53C443.06 187.681 441.207 187.416 439.475 186.754C437.742 186.092 436.172 185.049 434.876 183.698C433.58 182.347 432.588 180.721 431.971 178.935L330.172 171.881L342.911 151.821L440.493 161.965C443.49 161.102 446.692 161.395 449.492 162.79C452.291 164.184 454.495 166.583 455.684 169.53C456.874 172.478 456.967 175.771 455.945 178.784C454.924 181.797 452.859 184.322 450.143 185.88V185.88Z" fill="#FFB6B6"/>
<path id="Vector_59" d="M280.914 95.104C280.914 95.104 265.462 99.9991 269.142 118.594C272.822 137.188 319.275 172.267 326.597 178.15C333.919 184.034 394.852 176.103 394.852 176.103L410.592 155.538L351.249 146.939L280.914 95.104Z" fill="#B1B0C8"/>
<path id="Hair" d="M342.038 33.6473C337.96 35.7062 333.341 32.7221 329.772 29.7546L331.049 30.8615C324.857 37.1626 322.023 46.1642 320.683 55.0101C319.341 63.8467 319.272 72.8699 317.559 81.6478C315.845 90.4163 312.195 99.2468 305.265 104.679C295.983 111.956 283.075 111.631 271.573 109.552C271.42 109.521 271.277 109.499 271.124 109.469C274.121 100.297 275.279 90.6 274.53 80.9587C271.549 90.6597 266.399 99.5134 259.489 106.814C251.855 104.748 244.398 102.053 237.189 98.7536C232.525 96.6131 227.496 93.6719 226.157 88.6163C224.815 83.5991 227.761 78.2907 231.74 75.0717C235.719 71.8528 240.625 70.1436 245.172 67.8323C249.711 65.5317 254.193 62.2727 255.97 57.4051C260.071 46.2078 247.942 33.5364 252.509 22.5237C254.761 17.1082 260.381 14.1162 265.668 11.7994C273.739 8.27175 282.034 5.3072 290.495 2.92604C297.923 0.834407 305.684 -0.811988 313.285 0.427705C320.886 1.66739 328.367 6.31778 331.172 13.6724C335.744 15.2023 340.599 16.9298 343.563 20.8288C346.525 24.7186 346.357 31.4706 342.038 33.6473Z" fill="#2F2E41"/>
<path id="Vector_60" d="M488.19 284.13C493.633 282.069 495.563 273.518 492.501 265.032C489.44 256.546 482.546 251.338 477.103 253.399C471.661 255.461 469.731 264.011 472.792 272.497C475.854 280.984 482.748 286.192 488.19 284.13Z" fill="#B1B0C8"/>
<path id="Vector_61" d="M124.097 473L52.272 499.318L56 510L127.825 483.682L124.097 473Z" fill="#3F3D56"/>
<path id="Vector_62" d="M147.164 483L139 485.991L166.395 564.488L174.559 561.496L147.164 483Z" fill="#3F3D56"/>
<path id="Vector_63" d="M89.4676 395.345L127.758 467.756L137.84 462.623L99.5496 390.211L89.4676 395.345Z" fill="#3F3D56"/>
<path id="Vector_64" d="M558.825 474L477.756 503.705L481.484 514.387L562.553 484.682L558.825 474Z" fill="#3F3D56"/>
<path id="Vector_65" d="M657.825 434L573.561 464.876L577.175 475.233L661.44 444.357L657.825 434Z" fill="#3F3D56"/>
<path id="Vector_66" d="M620.734 553.624L582.067 481L572 486.162L610.666 558.786L620.734 553.624Z" fill="#3F3D56"/>
</g>
<defs>
<clipPath id="clip0_0_1">
<rect width="726" height="576" fill="white"/>
</clipPath>
</defs>
</svg>
